<svg viewBox="0 0 24 24" fill="none" xmlns="http://www.w3.org/2000/svg">
<g clip-path="url(#clip0_1731_420)">
<path d="M11.9952 23.9904C18.62 23.9904 23.9904 18.62 23.9904 11.9952C23.9904 5.37044 18.62 0 11.9952 0C5.37044 0 0 5.37044 0 11.9952C0 18.62 5.37044 23.9904 11.9952 23.9904Z" fill="url(#paint0_linear_1731_420)"/>
<path d="M11.995 22.4658C17.7778 22.4658 22.4657 17.7779 22.4657 11.9952C22.4657 6.2124 17.7778 1.52454 11.995 1.52454C6.21228 1.52454 1.52441 6.2124 1.52441 11.9952C1.52441 17.7779 6.21228 22.4658 11.995 22.4658Z" fill="url(#paint1_linear_1731_420)"/>
<path d="M15.7925 10.6912C15.6878 10.3934 15.5019 10.131 15.2556 9.93371C14.8589 9.62019 14.402 9.3917 13.9132 9.2625C13.3858 9.11868 12.8489 8.98446 12.3024 8.8694L10.7681 8.53377C10.3726 8.4641 9.99665 8.31045 9.66553 8.08314C9.55222 8.0158 9.45987 7.91821 9.3989 7.80135C9.33793 7.68449 9.31065 7.55299 9.32024 7.42153C9.35023 7.13365 9.49129 6.86878 9.7134 6.6832C10.006 6.41528 10.348 6.20684 10.7202 6.06952C11.1716 5.89707 11.6472 5.79676 12.1297 5.77228C12.7252 5.73224 13.3229 5.80048 13.894 5.97366C14.2615 6.08286 14.606 6.25831 14.9104 6.49142L15.7254 5.29285C15.3239 4.95414 14.8664 4.68805 14.3734 4.50659C13.6111 4.23844 12.8009 4.13395 11.9955 4.19981C11.1156 4.21321 10.249 4.41597 9.4545 4.79429C8.81104 5.1081 8.24468 5.5599 7.79571 6.11751C7.40528 6.60154 7.15046 7.18063 7.05737 7.7955C6.96947 8.36441 7.04609 8.9466 7.27801 9.47348C7.44296 9.83233 7.70117 10.1403 8.02582 10.3652C8.38038 10.625 8.76721 10.8377 9.17651 10.998C9.61651 11.1733 10.0682 11.3175 10.5284 11.4295C10.9887 11.5542 11.4202 11.6501 11.8229 11.746L12.8777 12.0144C13.0828 12.0525 13.2725 12.1491 13.4241 12.2924C13.4848 12.3725 13.5177 12.4701 13.5177 12.5705C13.5177 12.671 13.4848 12.7686 13.4241 12.8486C13.2882 13.0325 13.091 13.1617 12.8681 13.213C12.5773 13.2682 12.2766 13.2348 12.0051 13.1171C11.6211 12.9363 11.3053 12.6372 11.1038 12.2637L9.85726 12.6856C9.90734 12.9028 10.0057 13.106 10.145 13.2801C10.3051 13.4802 10.4886 13.6604 10.6914 13.817C10.9131 13.9838 11.1547 14.1223 11.4106 14.2293C11.6629 14.3418 11.9315 14.4131 12.2064 14.4403C12.7544 14.5166 13.3123 14.4806 13.8461 14.3348C14.2663 14.2201 14.6559 14.0138 14.9871 13.7307C15.2823 13.4635 15.5176 13.1367 15.6774 12.7719C15.8266 12.432 15.9143 12.0684 15.9363 11.698C15.9514 11.3563 15.9026 11.0149 15.7925 10.6912ZM12.6954 16.2717C12.3823 16.2792 12.0785 16.379 11.8219 16.5584C11.5652 16.7378 11.3672 16.989 11.2526 17.2804C11.138 17.5718 11.1119 17.8906 11.1775 18.1968C11.2432 18.503 11.3977 18.783 11.6217 19.0018C11.8458 19.2205 12.1294 19.3683 12.4371 19.4267C12.7448 19.4851 13.0628 19.4514 13.3515 19.3299C13.6401 19.2084 13.8865 19.0044 14.0597 18.7435C14.233 18.4827 14.3254 18.1766 14.3255 17.8634C14.323 17.6519 14.2789 17.4429 14.1956 17.2484C14.1123 17.0539 13.9915 16.8777 13.8401 16.7299C13.6888 16.5821 13.5098 16.4655 13.3134 16.3869C13.117 16.3083 12.907 16.2692 12.6954 16.2717Z" fill="url(#paint2_linear_1731_420)"/>
<path d="M15.4181 10.4323C15.3169 10.1329 15.1302 9.86951 14.8811 9.67479C14.4897 9.36076 14.0351 9.13507 13.5483 9.01319C13.0113 8.85977 12.4744 8.72555 11.9279 8.61048L10.3938 8.27491C9.99897 8.20814 9.62299 8.05774 9.29106 7.83382C9.17773 7.76411 9.08563 7.66473 9.02478 7.54641C8.96393 7.42809 8.93667 7.29534 8.94589 7.16261C8.97588 6.87473 9.11682 6.60986 9.33893 6.42428C9.61799 6.16477 9.94323 5.95987 10.2978 5.8202C10.7472 5.6399 11.2237 5.53624 11.7074 5.51342C12.3028 5.47338 12.9005 5.54156 13.4716 5.71474C13.8401 5.82165 14.1849 5.99737 14.488 6.23256L15.3125 5.034C14.9035 4.70101 14.4439 4.43557 13.9511 4.24773C13.1888 3.97958 12.3785 3.87503 11.5731 3.94089C10.6933 3.95429 9.82662 4.15705 9.03215 4.53538C8.3887 4.84919 7.82234 5.30098 7.37336 5.85859C6.98293 6.34263 6.72812 6.92171 6.63503 7.53658C6.54713 8.10549 6.62363 8.68768 6.85555 9.21456C7.0205 9.57341 7.27883 9.88138 7.60348 10.1063C7.95803 10.3661 8.34476 10.5788 8.75405 10.7391C9.19405 10.9144 9.64586 11.0586 10.1061 11.1706C10.5663 11.2952 10.9978 11.3911 11.4005 11.487L12.4552 11.7651C12.66 11.7983 12.8503 11.8918 13.0018 12.0336C13.0625 12.1136 13.0953 12.2112 13.0953 12.3116C13.0953 12.412 13.0625 12.5097 13.0018 12.5897C12.8696 12.7776 12.6706 12.9079 12.4456 12.954C12.1548 13.0093 11.8543 12.9759 11.5827 12.8582C11.1988 12.6774 10.8828 12.3783 10.6813 12.0048L9.43491 12.4267C9.485 12.6439 9.58324 12.8471 9.7225 13.0212C9.88267 13.2213 10.0662 13.4015 10.2691 13.5581C10.4885 13.7284 10.7305 13.8671 10.9882 13.9704C11.2405 14.0829 11.5092 14.1541 11.784 14.1814C12.3321 14.2577 12.8899 14.2218 13.4236 14.0759C13.8448 13.9636 14.2351 13.7571 14.5647 13.4719C14.8659 13.21 15.1022 12.8817 15.2551 12.513C15.4141 12.1766 15.5022 11.811 15.514 11.4391C15.5483 11.1005 15.5157 10.7584 15.4181 10.4323ZM12.3209 16.0128C12.0051 16.0185 11.6981 16.1175 11.4384 16.2973C11.1787 16.477 10.9779 16.7296 10.8614 17.0232C10.7449 17.3168 10.7179 17.6383 10.7836 17.9473C10.8494 18.2562 11.0051 18.5388 11.2311 18.7595C11.4571 18.9802 11.7433 19.1291 12.0537 19.1875C12.3642 19.2459 12.685 19.2112 12.9757 19.0877C13.2664 18.9643 13.5141 18.7576 13.6877 18.4936C13.8613 18.2297 13.9529 17.9204 13.9511 17.6045C13.9486 17.3929 13.9044 17.184 13.8211 16.9895C13.7379 16.795 13.617 16.6188 13.4657 16.471C13.3143 16.3232 13.1354 16.2067 12.939 16.1281C12.7425 16.0494 12.5325 16.0102 12.3209 16.0128Z" fill="url(#paint3_linear_1731_420)"/>
<path opacity="0.5" d="M17.969 8.41869C19.271 8.42143 20.5647 8.6252 21.8044 9.02277C21.3455 7.49466 20.5371 6.09438 19.4432 4.93279C18.3494 3.77121 17.0002 2.88024 15.5024 2.33037C14.0046 1.7805 12.3994 1.58687 10.8138 1.7648C9.22824 1.94272 7.70582 2.48731 6.36715 3.35547C5.02848 4.22363 3.91024 5.3915 3.10107 6.76663C2.2919 8.14176 1.81397 9.68638 1.70511 11.2782C1.59625 12.87 1.85944 14.4654 2.47387 15.9378C3.0883 17.4103 4.03712 18.7196 5.24514 19.7619C5.59495 16.6353 7.08733 13.7481 9.43571 11.6546C11.7841 9.56102 14.823 8.40864 17.969 8.41869Z" fill="url(#paint4_linear_1731_420)"/>
</g>
<defs>
<linearGradient id="paint0_linear_1731_420" x1="11.9952" y1="24" x2="11.9952" y2="0" gradientUnits="userSpaceOnUse">
<stop stop-color="#B4BDC1"/>
<stop offset="1" stop-color="#7B8C93"/>
</linearGradient>
<linearGradient id="paint1_linear_1731_420" x1="11.995" y1="1.52454" x2="11.995" y2="22.4658" gradientUnits="userSpaceOnUse">
<stop stop-color="#A1ADB2"/>
<stop offset="1" stop-color="#566B74"/>
</linearGradient>
<linearGradient id="paint2_linear_1731_420" x1="11.4873" y1="19.4551" x2="11.4873" y2="4.19022" gradientUnits="userSpaceOnUse">
<stop offset="0.01" stop-color="#566B74"/>
<stop offset="1" stop-color="#566B74"/>
</linearGradient>
<linearGradient id="paint3_linear_1731_420" x1="11.1129" y1="19.2058" x2="11.1129" y2="3.93131" gradientUnits="userSpaceOnUse">
<stop offset="0.01" stop-color="#C7CED1"/>
<stop offset="1" stop-color="white"/>
</linearGradient>
<linearGradient id="paint4_linear_1731_420" x1="11.7845" y1="19.7619" x2="11.7845" y2="1.69719" gradientUnits="userSpaceOnUse">
<stop stop-color="white" stop-opacity="0"/>
<stop offset="1" stop-color="white"/>
</linearGradient>
<clipPath id="clip0_1731_420">
<rect width="24" height="24" fill="white"/>
</clipPath>
</defs>
</svg>
