<svg width="56" height="56" viewBox="0 0 56 56" fill="none" xmlns="http://www.w3.org/2000/svg">
<path d="M39.9375 35.25H37.4688L36.5938 34.4062C39.6562 30.8437 41.5 26.2188 41.5 21.1875C41.5 9.96875 32.4062 0.875 21.1875 0.875C9.96875 0.875 0.875 9.96875 0.875 21.1875C0.875 32.4062 9.96875 41.5 21.1875 41.5C26.2188 41.5 30.8437 39.6562 34.4062 36.5938L35.25 37.4688V39.9375L50.875 55.5312L55.5312 50.875L39.9375 35.25ZM21.1875 35.25C13.4062 35.25 7.125 28.9688 7.125 21.1875C7.125 13.4062 13.4062 7.125 21.1875 7.125C28.9688 7.125 35.25 13.4062 35.25 21.1875C35.25 28.9688 28.9688 35.25 21.1875 35.25Z" fill="#A1ADB2"/>
</svg>
