<svg viewBox="0 0 197 78" fill="none" xmlns="http://www.w3.org/2000/svg">
<path d="M22.6312 30.1L35.4101 1.44446L43.214 3.41101L24.5822 52.013L12.7789 51.3575L0 9.40432C2.2111 8.90487 4.16207 8.43665 5.85291 7.99964C7.34866 7.62505 8.71433 7.25047 9.91743 6.87589C11.107 6.50554 11.6607 6.25724 11.6102 6.131L22.6312 30.1Z" fill="white"/>
<path fill-rule="evenodd" clip-rule="evenodd" d="M41.1959 50.7956C41.1959 50.7956 41.3585 50.1713 41.6511 48.9227C41.9438 47.6741 42.3014 46.0197 42.7241 43.9595C43.1468 41.8993 43.6346 39.5581 44.1874 36.9048C44.7402 34.2516 45.2604 31.5358 45.7807 28.7889L50.0728 6.68858L71.8261 8.18691L75.4354 52.7621L67.3389 53.2304L65.9732 40.9628L55.9257 41.3374L54.4625 50.9829C51.9262 50.9829 49.6826 50.9516 47.7316 50.8892H45.2929C44.5125 50.8892 43.7972 50.8892 43.1468 50.858C42.9821 50.8501 42.8277 50.8422 42.6833 50.8348C42.2577 50.813 41.9182 50.7956 41.6511 50.7956H41.1959ZM60.3154 15.9595L57.2914 33.1902C57.4215 33.1278 57.9092 33.0966 58.7221 33.0654C59.535 33.0342 60.4129 33.0029 61.3884 33.0029H65.2904L64.4124 16.5213L60.3154 15.9595Z" fill="white"/>
<path d="M80.7033 16.2405C80.9635 17.1769 81.0935 17.6139 81.0935 17.5515C81.0935 17.5515 81.7113 17.333 82.947 16.8648C84.1826 16.3966 85.7758 15.8971 87.6943 15.3977C89.6127 14.8982 91.6613 14.4612 93.8724 14.0866C96.0835 13.712 98.197 13.6184 100.181 13.7745C102.164 13.9306 103.855 14.4612 105.253 15.3664C106.651 16.2717 107.464 17.7076 107.724 19.7054C107.854 20.7042 107.789 21.6095 107.497 22.4211C107.204 23.2327 106.749 23.9818 106.163 24.6374C105.578 25.2929 104.895 25.8547 104.115 26.3542C103.335 26.8536 102.554 27.2906 101.774 27.6652C99.8228 28.5392 97.6117 29.226 95.1405 29.7254V18.0197L84.2151 18.3007L81.6788 49.9528L95.2381 50.9829L95.7258 36.7488C95.7908 36.8737 96.0835 37.4043 96.6037 38.3096C97.124 39.2148 97.7743 40.3073 98.5547 41.5872C98.9505 42.2363 99.3631 42.9016 99.7882 43.5869L99.7892 43.5886C100.202 44.2539 100.626 44.9382 101.058 45.6451C101.936 47.081 102.749 48.3921 103.497 49.5782C104.245 50.7644 104.895 51.7321 105.448 52.4813C106.001 53.2304 106.294 53.5426 106.359 53.4177L114.455 49.11L106.066 33.2839C107.432 32.7221 108.765 32.0666 110.065 31.3174C111.366 30.5682 112.569 29.6942 113.675 28.6953C115.236 27.2594 116.276 25.2929 116.764 22.7644C117.251 20.236 117.089 17.7076 116.309 15.1792C115.528 12.6507 114.065 10.4032 111.919 8.43669C109.773 6.47014 106.879 5.31518 103.237 5.00302C99.5302 4.69088 96.181 4.72209 93.1895 5.06546C90.198 5.40882 87.6293 5.81462 85.4832 6.31406C82.947 6.93836 80.6708 7.68753 78.6548 8.56155C79.11 10.3096 79.5002 11.8391 79.8254 13.1502C80.1506 14.2739 80.4432 15.304 80.7033 16.2405Z" fill="white"/>
<path d="M120.992 6.40776C120.992 6.40776 121.447 6.40776 122.358 6.37654C123.268 6.34533 124.471 6.31411 125.967 6.28289C127.463 6.25168 129.154 6.22047 131.04 6.22047H152.89C152.89 7.40664 152.923 8.46796 152.988 9.40441C152.988 10.216 153.021 10.9652 153.053 11.6207C153.086 12.2762 153.053 12.5884 152.988 12.5884C152.967 12.5884 152.902 12.5916 152.793 12.5971C152.564 12.6085 152.141 12.6296 151.525 12.6508L151.232 12.6607C150.4 12.689 149.489 12.7198 148.501 12.7756C147.2 12.8381 145.737 12.9005 144.111 12.9629L146.647 49.8592L131.527 51.4512L131.82 13.3375L120.602 13.6185C120.667 12.3698 120.732 11.2149 120.797 10.1536L120.825 9.77769C120.88 9.04574 120.932 8.35944 120.96 7.71879C120.992 6.96963 120.992 6.53262 120.992 6.40776Z" fill="white"/>
<path d="M177.733 46.3943C176.269 45.8324 174.904 44.5526 173.668 42.5548L168.01 44.4277C168.205 45.3642 168.661 46.2694 169.344 47.1435C170.026 48.0175 170.839 48.8291 171.815 49.5782C172.79 50.3274 173.863 50.9517 175.034 51.4511C176.204 51.9506 177.408 52.2627 178.643 52.3876C181.505 52.6998 183.976 52.5437 186.057 51.9194C188.138 51.2951 189.861 50.3898 191.227 49.1724C192.593 47.9551 193.633 46.5192 194.348 44.896C195.064 43.2728 195.454 41.6496 195.519 40.0264C195.584 38.4032 195.356 36.8737 194.836 35.4378C194.316 34.0019 193.503 32.8469 192.397 31.9729C190.772 30.6619 188.756 29.663 186.349 28.9762C183.943 28.2895 181.505 27.6964 179.033 27.1658C176.562 26.6351 174.253 26.1357 172.107 25.6674C169.961 25.1992 168.303 24.5125 167.132 23.6385C165.962 22.7644 165.442 21.7655 165.539 20.6106C165.637 19.4556 166.222 18.3319 167.327 17.2706C168.433 16.2093 169.961 15.304 171.88 14.5236C173.798 13.7433 175.912 13.275 178.253 13.1502C181.374 13.0253 184.041 13.3375 186.252 14.0866C188.463 14.8358 189.991 15.6162 190.837 16.4278L194.544 10.9963C193.178 9.74772 191.129 8.56154 188.398 7.4378C185.667 6.31405 182.09 5.84583 177.668 6.03312C173.18 6.22041 169.344 7.12565 166.157 8.74883C162.97 10.372 160.467 12.3698 158.646 14.7109C156.825 17.0521 155.719 19.5805 155.329 22.2962C154.939 25.0119 155.264 27.5403 156.305 29.9127C157.02 31.4735 158.158 32.8157 159.686 33.9395C161.214 35.0632 162.938 36.0309 164.889 36.8112C166.84 37.5916 168.888 38.2471 171.002 38.7778C173.114 39.3082 175.064 39.7762 176.884 40.213L176.887 40.2137C178.708 40.6507 180.301 41.0565 181.635 41.4311C182.968 41.8057 183.781 42.2115 184.106 42.6485C184.691 43.5225 184.724 44.3653 184.171 45.1769C183.618 45.9885 182.773 46.5504 181.635 46.8313C180.497 47.1122 179.196 46.9562 177.733 46.3943Z" fill="white"/>
<ellipse cx="180.828" cy="67.8888" rx="7.35075" ry="7.22222" fill="white"/>
<path d="M8.71516 74.143C7.8781 74.143 7.12595 73.9843 6.45873 73.667C5.80364 73.3388 5.28199 72.8628 4.89379 72.2391C4.51772 71.6154 4.32968 70.8495 4.32968 69.9413V65.9037C4.32968 65.663 4.4146 65.4661 4.58444 65.3129C4.76641 65.1487 4.99084 65.0667 5.25773 65.0667C5.52462 65.0667 5.74298 65.1487 5.91282 65.3129C6.09479 65.4661 6.18578 65.663 6.18578 65.9037V69.9413C6.18578 70.8714 6.45873 71.5552 7.00464 71.9929C7.56268 72.4196 8.25417 72.633 9.0791 72.633C9.60074 72.633 10.0617 72.54 10.4621 72.354C10.8745 72.168 11.2021 71.9163 11.4447 71.599C11.6873 71.2817 11.8086 70.9261 11.8086 70.5322V65.9037C11.8086 65.6521 11.8936 65.4496 12.0634 65.2965C12.2454 65.1433 12.4698 65.0667 12.7367 65.0667C13.0157 65.0667 13.2401 65.1433 13.41 65.2965C13.5798 65.4496 13.6647 65.6521 13.6647 65.9037V73.2239C13.6647 73.4646 13.5798 73.667 13.41 73.8311C13.2401 73.9843 13.0157 74.0609 12.7367 74.0609C12.4698 74.0609 12.2454 73.9843 12.0634 73.8311C11.8936 73.667 11.8086 73.4646 11.8086 73.2239V73.0433C11.4326 73.3825 10.9777 73.6506 10.4439 73.8476C9.91009 74.0445 9.33386 74.143 8.71516 74.143Z" fill="white"/>
<path d="M20.009 74.1266C19.2447 74.1266 18.5593 74.0226 17.9527 73.8147C17.3583 73.5959 16.8851 73.295 16.5333 72.912C16.1936 72.5291 16.0238 72.0914 16.0238 71.599C16.0238 70.8659 16.3696 70.2805 17.061 69.8428C17.7525 69.4051 18.717 69.0824 19.9544 68.8745C20.7793 68.7213 21.3373 68.5407 21.6285 68.3328C21.9196 68.114 22.0652 67.835 22.0652 67.4958C22.0652 67.1456 21.8711 66.8885 21.4829 66.7244C21.0947 66.5493 20.6458 66.4618 20.1363 66.4618C19.7117 66.4618 19.2871 66.5219 18.8625 66.6423C18.4501 66.7627 18.1043 66.9377 17.8253 67.1675C17.6433 67.3207 17.4432 67.4247 17.2248 67.4794C17.0064 67.5341 16.8305 67.5231 16.6971 67.4465C16.4666 67.3152 16.321 67.1456 16.2604 66.9377C16.2118 66.7298 16.2664 66.5384 16.4241 66.3633C16.7881 65.9584 17.2976 65.6357 17.9527 65.3949C18.6199 65.1433 19.3539 65.0174 20.1545 65.0174C20.8339 65.0174 21.4526 65.1159 22.0106 65.3129C22.5687 65.4989 23.0115 65.7779 23.339 66.1499C23.6787 66.5219 23.8485 66.9815 23.8485 67.5286C23.8485 68.7979 22.696 69.6623 20.3911 70.1218C19.4327 70.2969 18.7716 70.5048 18.4076 70.7455C18.0437 70.9753 17.8678 71.2543 17.8799 71.5826C17.9042 72.2938 18.6138 72.6494 20.009 72.6494C20.6398 72.6494 21.1736 72.5947 21.6103 72.4853C22.0591 72.3649 22.411 72.1844 22.6657 71.9437C22.8356 71.7795 23.0297 71.6701 23.248 71.6154C23.4664 71.5607 23.6908 71.6209 23.9213 71.7959C24.1275 71.9491 24.2307 72.1242 24.2307 72.3212C24.2307 72.5181 24.1397 72.7041 23.9577 72.8792C23.5574 73.2403 22.9993 73.5412 22.2836 73.7819C21.5678 74.0117 20.8096 74.1266 20.009 74.1266Z" fill="white"/>
<path d="M27.44 77.9015C27.1731 77.9015 26.9487 77.8195 26.7667 77.6553C26.5969 77.5021 26.512 77.3052 26.512 77.0645V69.5802C26.5241 68.7158 26.7485 67.9389 27.1853 67.2496C27.622 66.5602 28.2164 66.0186 28.9686 65.6247C29.7207 65.2199 30.5699 65.0174 31.5161 65.0174C32.4745 65.0174 33.3298 65.2199 34.0819 65.6247C34.8341 66.0186 35.4285 66.5602 35.8652 67.2496C36.3141 67.9389 36.5385 68.7158 36.5385 69.5802C36.5385 70.4446 36.3323 71.2215 35.9198 71.9108C35.5195 72.5892 34.9675 73.1309 34.2639 73.5357C33.5603 73.9296 32.7657 74.1266 31.8801 74.1266C31.1643 74.1266 30.5032 73.9953 29.8966 73.7327C29.3022 73.4591 28.7927 73.0926 28.3681 72.633V77.0645C28.3681 77.3052 28.2831 77.5021 28.1133 77.6553C27.9435 77.8195 27.719 77.9015 27.44 77.9015ZM31.5161 72.6494C32.1348 72.6494 32.6868 72.5181 33.1721 72.2555C33.6573 71.982 34.0394 71.6154 34.3185 71.1558C34.6096 70.6853 34.7552 70.1601 34.7552 69.5802C34.7552 68.9893 34.6096 68.4641 34.3185 68.0046C34.0394 67.5341 33.6573 67.1675 33.1721 66.9049C32.6868 66.6314 32.1348 66.4946 31.5161 66.4946C30.9096 66.4946 30.3576 66.6314 29.8602 66.9049C29.375 67.1675 28.9928 67.5341 28.7138 68.0046C28.4348 68.4641 28.2953 68.9893 28.2953 69.5802C28.2953 70.1601 28.4348 70.6853 28.7138 71.1558C28.9928 71.6154 29.375 71.982 29.8602 72.2555C30.3576 72.5181 30.9096 72.6494 31.5161 72.6494Z" fill="white"/>
<path d="M43.4556 74.1266C42.57 74.1266 41.7754 73.9296 41.0718 73.5357C40.3682 73.1309 39.8102 72.5892 39.3977 71.9108C38.9974 71.2215 38.7972 70.4446 38.7972 69.5802C38.7972 68.7158 39.0156 67.9389 39.4523 67.2496C39.9012 66.5602 40.5017 66.0186 41.2538 65.6247C42.0181 65.2199 42.8733 65.0174 43.8196 65.0174C44.7658 65.0174 45.615 65.2199 46.3672 65.6247C47.1193 66.0186 47.7137 66.5602 48.1505 67.2496C48.5993 67.9389 48.8238 68.7158 48.8238 69.5802V73.2403C48.8238 73.481 48.7328 73.6834 48.5508 73.8476C48.381 74.0007 48.1626 74.0773 47.8957 74.0773C47.6288 74.0773 47.4044 74.0007 47.2224 73.8476C47.0526 73.6834 46.9677 73.481 46.9677 73.2403V72.633C46.5431 73.0926 46.0275 73.4591 45.4209 73.7327C44.8265 73.9953 44.1714 74.1266 43.4556 74.1266ZM43.8196 72.6494C44.4383 72.6494 44.9902 72.5181 45.4755 72.2555C45.9608 71.982 46.3429 71.6154 46.6219 71.1558C46.9009 70.6853 47.0404 70.1601 47.0404 69.5802C47.0404 68.9893 46.9009 68.4641 46.6219 68.0046C46.3429 67.5341 45.9608 67.1675 45.4755 66.9049C44.9902 66.6314 44.4383 66.4946 43.8196 66.4946C43.213 66.4946 42.661 66.6314 42.1636 66.9049C41.6784 67.1675 41.2902 67.5341 40.999 68.0046C40.72 68.4641 40.5805 68.9893 40.5805 69.5802C40.5805 70.1601 40.72 70.6853 40.999 71.1558C41.2902 71.6154 41.6784 71.982 42.1636 72.2555C42.661 72.5181 43.213 72.6494 43.8196 72.6494Z" fill="white"/>
<path d="M61.0662 74.1266C60.1564 74.1266 59.3496 73.9351 58.646 73.5521C57.9545 73.1582 57.4086 72.6221 57.0083 71.9437C56.6079 71.2543 56.4078 70.4665 56.4078 69.5802C56.4078 68.683 56.6201 67.8952 57.0447 67.2168C57.4814 66.5274 58.0758 65.9913 58.828 65.6083C59.5801 65.2144 60.4475 65.0174 61.4301 65.0174C62.4007 65.0174 63.262 65.2144 64.0141 65.6083C64.7663 65.9913 65.3546 66.5274 65.7792 67.2168C66.216 67.8952 66.4343 68.683 66.4343 69.5802V73.1254C66.4343 73.9898 66.222 74.7721 65.7974 75.4724C65.3728 76.1836 64.7784 76.7472 64.0141 77.1629C63.262 77.5787 62.3885 77.7866 61.3938 77.7866C60.5324 77.7866 59.7257 77.6334 58.9736 77.3271C58.2214 77.0207 57.5845 76.5721 57.0629 75.9812C56.9052 75.7952 56.8445 75.6037 56.8809 75.4068C56.9294 75.2098 57.0507 75.0512 57.2448 74.9308C57.4632 74.7995 57.6876 74.7557 57.9181 74.7995C58.1608 74.8433 58.3549 74.9527 58.5004 75.1278C58.828 75.4998 59.2404 75.7897 59.7378 75.9976C60.2352 76.2055 60.7993 76.3095 61.4301 76.3095C62.0125 76.3095 62.5462 76.1836 63.0315 75.932C63.5289 75.6803 63.9231 75.3083 64.2143 74.8159C64.5054 74.3235 64.651 73.7217 64.651 73.0105V72.2063C64.2749 72.7971 63.7776 73.2676 63.1589 73.6178C62.5402 73.957 61.8426 74.1266 61.0662 74.1266ZM61.4301 72.6494C62.061 72.6494 62.619 72.5181 63.1043 72.2555C63.5895 71.9929 63.9656 71.6318 64.2325 71.1723C64.5115 70.7127 64.651 70.182 64.651 69.5802C64.651 68.9784 64.5115 68.4477 64.2325 67.9882C63.9656 67.5177 63.5895 67.1511 63.1043 66.8885C62.619 66.6259 62.061 66.4946 61.4301 66.4946C60.7993 66.4946 60.2413 66.6259 59.756 66.8885C59.2708 67.1511 58.8886 67.5177 58.6096 67.9882C58.3306 68.4477 58.1911 68.9784 58.1911 69.5802C58.1911 70.182 58.3306 70.7127 58.6096 71.1723C58.8886 71.6318 59.2708 71.9929 59.756 72.2555C60.2413 72.5181 60.7993 72.6494 61.4301 72.6494Z" fill="white"/>
<path d="M72.9271 65.0995C73.3032 65.0995 73.5822 65.28 73.7642 65.6411L77.5127 72.9777C77.6219 73.1965 77.634 73.3935 77.5491 73.5685C77.4642 73.7327 77.3186 73.8585 77.1124 73.946C76.5786 74.1649 76.1843 74.0554 75.9296 73.6178L72.9635 67.545L69.9064 73.6178C69.7972 73.8257 69.6334 73.9624 69.4151 74.0281C69.2088 74.0828 68.9783 74.0554 68.7236 73.946C68.4931 73.8476 68.3293 73.7162 68.2323 73.5521C68.1473 73.388 68.1655 73.1965 68.2869 72.9777L72.0536 65.6411C72.2356 65.28 72.5268 65.0995 72.9271 65.0995Z" fill="white"/>
<path d="M79.713 73.864C79.5189 73.7108 79.4279 73.5412 79.44 73.3552C79.4522 73.1692 79.525 72.9996 79.6584 72.8464L81.4963 70.6799C80.8655 70.5048 80.362 70.193 79.986 69.7443C79.6099 69.2957 79.4219 68.7596 79.4219 68.1359C79.4219 67.556 79.5735 67.0362 79.8768 66.5767C80.1922 66.1171 80.6168 65.756 81.1506 65.4934C81.6965 65.2199 82.3212 65.0831 83.0249 65.0831H86.1729C86.452 65.0831 86.6764 65.1597 86.8462 65.3129C87.0161 65.4661 87.101 65.6685 87.101 65.9201V73.2403C87.0889 73.481 86.9979 73.678 86.828 73.8311C86.6703 73.9843 86.452 74.0609 86.1729 74.0609C85.9182 74.0609 85.7059 73.9843 85.536 73.8311C85.3662 73.667 85.2813 73.4646 85.2813 73.2239V71.0574H83.5708L81.187 73.7327C80.9807 73.9734 80.726 74.0883 80.4227 74.0773C80.1194 74.0664 79.8829 73.9953 79.713 73.864ZM83.0249 69.6787H85.2813V66.6423H83.0249C82.5396 66.6423 82.115 66.7846 81.7511 67.069C81.3871 67.3426 81.2052 67.6982 81.2052 68.1359C81.2052 68.5954 81.3871 68.9675 81.7511 69.252C82.115 69.5364 82.5396 69.6787 83.0249 69.6787Z" fill="white"/>
<path d="M96.6383 77.9015C96.3715 77.9015 96.147 77.8195 95.9651 77.6553C95.7952 77.5021 95.7103 77.3052 95.7103 77.0645V69.5802C95.7224 68.7158 95.9469 67.9389 96.3836 67.2496C96.8203 66.5602 97.4147 66.0186 98.1669 65.6247C98.919 65.2199 99.7682 65.0174 100.714 65.0174C101.673 65.0174 102.528 65.2199 103.28 65.6247C104.032 66.0186 104.627 66.5602 105.064 67.2496C105.512 67.9389 105.737 68.7158 105.737 69.5802C105.737 70.4446 105.531 71.2215 105.118 71.9108C104.718 72.5892 104.166 73.1309 103.462 73.5357C102.759 73.9296 101.964 74.1266 101.078 74.1266C100.363 74.1266 99.7015 73.9953 99.0949 73.7327C98.5005 73.4591 97.991 73.0926 97.5664 72.633V77.0645C97.5664 77.3052 97.4815 77.5021 97.3116 77.6553C97.1418 77.8195 96.9174 77.9015 96.6383 77.9015ZM100.714 72.6494C101.333 72.6494 101.885 72.5181 102.37 72.2555C102.856 71.982 103.238 71.6154 103.517 71.1558C103.808 70.6853 103.954 70.1601 103.954 69.5802C103.954 68.9893 103.808 68.4641 103.517 68.0046C103.238 67.5341 102.856 67.1675 102.37 66.9049C101.885 66.6314 101.333 66.4946 100.714 66.4946C100.108 66.4946 99.5559 66.6314 99.0585 66.9049C98.5733 67.1675 98.1912 67.5341 97.9121 68.0046C97.6331 68.4641 97.4936 68.9893 97.4936 69.5802C97.4936 70.1601 97.6331 70.6853 97.9121 71.1558C98.1912 71.6154 98.5733 71.982 99.0585 72.2555C99.5559 72.5181 100.108 72.6494 100.714 72.6494Z" fill="white"/>
<path d="M112.654 74.1266C111.768 74.1266 110.974 73.9296 110.27 73.5357C109.567 73.1309 109.009 72.5892 108.596 71.9108C108.196 71.2215 107.996 70.4446 107.996 69.5802C107.996 68.7158 108.214 67.9389 108.651 67.2496C109.099 66.5602 109.7 66.0186 110.452 65.6247C111.216 65.2199 112.072 65.0174 113.018 65.0174C113.964 65.0174 114.813 65.2199 115.565 65.6247C116.318 66.0186 116.912 66.5602 117.349 67.2496C117.798 67.9389 118.022 68.7158 118.022 69.5802V73.2403C118.022 73.481 117.931 73.6834 117.749 73.8476C117.579 74.0007 117.361 74.0773 117.094 74.0773C116.827 74.0773 116.603 74.0007 116.421 73.8476C116.251 73.6834 116.166 73.481 116.166 73.2403V72.633C115.741 73.0926 115.226 73.4591 114.619 73.7327C114.025 73.9953 113.37 74.1266 112.654 74.1266ZM113.018 72.6494C113.637 72.6494 114.189 72.5181 114.674 72.2555C115.159 71.982 115.541 71.6154 115.82 71.1558C116.099 70.6853 116.239 70.1601 116.239 69.5802C116.239 68.9893 116.099 68.4641 115.82 68.0046C115.541 67.5341 115.159 67.1675 114.674 66.9049C114.189 66.6314 113.637 66.4946 113.018 66.4946C112.411 66.4946 111.859 66.6314 111.362 66.9049C110.877 67.1675 110.489 67.5341 110.197 68.0046C109.918 68.4641 109.779 68.9893 109.779 69.5802C109.779 70.1601 109.918 70.6853 110.197 71.1558C110.489 71.6154 110.877 71.982 111.362 72.2555C111.859 72.5181 112.411 72.6494 113.018 72.6494Z" fill="white"/>
<path d="M124.187 74.1922C123.314 74.1922 122.537 74.0719 121.858 73.8311C121.191 73.5904 120.645 73.295 120.22 72.9448C120.026 72.7807 119.929 72.5892 119.929 72.3704C119.929 72.1406 120.032 71.9546 120.239 71.8124C120.421 71.6811 120.639 71.6263 120.894 71.6482C121.161 71.6592 121.385 71.7412 121.567 71.8944C121.858 72.1242 122.222 72.3212 122.659 72.4853C123.095 72.6385 123.599 72.7151 124.169 72.7151C124.836 72.7151 125.364 72.5892 125.752 72.3376C126.153 72.075 126.353 71.7412 126.353 71.3364C126.353 70.9753 126.207 70.6908 125.916 70.4829C125.637 70.2641 125.285 70.1492 124.861 70.1382H123.823C123.556 70.1382 123.332 70.0726 123.15 69.9413C122.968 69.81 122.877 69.6513 122.877 69.4653C122.877 69.2793 122.968 69.1261 123.15 69.0058C123.332 68.8854 123.556 68.8252 123.823 68.8252H124.842C125.243 68.8033 125.54 68.683 125.734 68.4641C125.94 68.2453 126.043 67.9718 126.043 67.6435C126.043 67.2824 125.874 66.9979 125.534 66.79C125.194 66.5821 124.703 66.4782 124.06 66.4782C122.98 66.4782 122.155 66.7353 121.585 67.2496C121.391 67.4247 121.179 67.5231 120.948 67.545C120.73 67.556 120.518 67.4903 120.311 67.3481C120.154 67.2386 120.081 67.08 120.093 66.8721C120.117 66.6642 120.22 66.4727 120.402 66.2976C120.791 65.9147 121.312 65.6028 121.967 65.3621C122.622 65.1214 123.308 65.001 124.024 65.001C124.764 65.001 125.419 65.1159 125.989 65.3457C126.559 65.5755 127.008 65.8818 127.335 66.2648C127.663 66.6478 127.827 67.069 127.827 67.5286C127.827 68.01 127.657 68.4149 127.317 68.7432C126.978 69.0605 126.559 69.2738 126.062 69.3833C126.668 69.4927 127.166 69.7334 127.554 70.1054C127.942 70.4774 128.136 70.9151 128.136 71.4184C128.136 71.9437 127.96 72.4142 127.608 72.83C127.269 73.2457 126.802 73.5795 126.207 73.8311C125.613 74.0719 124.939 74.1922 124.187 74.1922Z" fill="white"/>
<path d="M130.198 78C129.979 78 129.755 77.9726 129.524 77.9179C129.306 77.8632 129.088 77.7812 128.869 77.6717C128.602 77.5295 128.427 77.3544 128.342 77.1465C128.257 76.9386 128.293 76.7362 128.451 76.5393C128.596 76.3532 128.772 76.2384 128.979 76.1946C129.185 76.1508 129.403 76.1891 129.634 76.3095C129.888 76.4408 130.131 76.5064 130.362 76.5064C131.102 76.5064 131.829 75.7897 132.545 74.3563L133.127 73.1582L129.051 66.1663C128.93 65.9584 128.912 65.7615 128.997 65.5755C129.094 65.3785 129.258 65.2363 129.488 65.1487C129.719 65.0612 129.931 65.0557 130.125 65.1323C130.331 65.198 130.495 65.3348 130.616 65.5426L133.965 71.4677L136.894 65.4934C137.003 65.2746 137.167 65.1269 137.386 65.0503C137.616 64.9737 137.847 64.9846 138.077 65.0831C138.283 65.1597 138.417 65.3019 138.477 65.5098C138.538 65.7068 138.508 65.9201 138.386 66.1499L134.001 75.0129C133.564 75.8992 133.006 76.6158 132.327 77.1629C131.66 77.721 130.95 78 130.198 78Z" fill="white"/>
<path d="M141.313 74.0609C141.047 74.0609 140.822 73.9843 140.64 73.8311C140.47 73.667 140.385 73.4646 140.385 73.2239V65.9201C140.385 65.6685 140.47 65.4661 140.64 65.3129C140.822 65.1597 141.047 65.0831 141.313 65.0831C141.702 65.0831 142.029 65.2527 142.296 65.5919L146.063 70.4993L149.83 65.5919C150.096 65.2527 150.424 65.0831 150.812 65.0831C151.091 65.0831 151.316 65.1597 151.486 65.3129C151.655 65.4661 151.74 65.6685 151.74 65.9201V73.2239C151.74 73.4646 151.655 73.667 151.486 73.8311C151.316 73.9843 151.091 74.0609 150.812 74.0609C150.545 74.0609 150.321 73.9843 150.139 73.8311C149.969 73.667 149.884 73.4646 149.884 73.2239V67.9882L147.009 71.6482C146.706 72.0312 146.378 72.2227 146.026 72.2227C145.675 72.2117 145.353 72.0203 145.062 71.6482L142.241 67.9882V73.2239C142.241 73.4646 142.157 73.667 141.987 73.8311C141.817 73.9843 141.592 74.0609 141.313 74.0609Z" fill="white"/>
<path d="M159.159 74.1266C158.274 74.1266 157.479 73.9296 156.776 73.5357C156.072 73.1309 155.514 72.5892 155.101 71.9108C154.701 71.2215 154.501 70.4446 154.501 69.5802C154.501 68.7158 154.719 67.9389 155.156 67.2496C155.605 66.5602 156.205 66.0186 156.958 65.6247C157.722 65.2199 158.577 65.0174 159.523 65.0174C160.47 65.0174 161.319 65.2199 162.071 65.6247C162.823 66.0186 163.417 66.5602 163.854 67.2496C164.303 67.9389 164.527 68.7158 164.527 69.5802V73.2403C164.527 73.481 164.437 73.6834 164.255 73.8476C164.085 74.0007 163.866 74.0773 163.599 74.0773C163.333 74.0773 163.108 74.0007 162.926 73.8476C162.756 73.6834 162.671 73.481 162.671 73.2403V72.633C162.247 73.0926 161.731 73.4591 161.125 73.7327C160.53 73.9953 159.875 74.1266 159.159 74.1266ZM159.523 72.6494C160.142 72.6494 160.694 72.5181 161.179 72.2555C161.665 71.982 162.047 71.6154 162.326 71.1558C162.605 70.6853 162.744 70.1601 162.744 69.5802C162.744 68.9893 162.605 68.4641 162.326 68.0046C162.047 67.5341 161.665 67.1675 161.179 66.9049C160.694 66.6314 160.142 66.4946 159.523 66.4946C158.917 66.4946 158.365 66.6314 157.867 66.9049C157.382 67.1675 156.994 67.5341 156.703 68.0046C156.424 68.4641 156.284 68.9893 156.284 69.5802C156.284 70.1601 156.424 70.6853 156.703 71.1558C156.994 71.6154 157.382 71.982 157.867 72.2555C158.365 72.5181 158.917 72.6494 159.523 72.6494Z" fill="white"/>
</svg>
