<svg width="32" height="32" viewBox="0 0 32 32" fill="none" xmlns="http://www.w3.org/2000/svg">
<path fill-rule="evenodd" clip-rule="evenodd" d="M6 16C6 10.48 10.48 6 16 6C21.52 6 26 10.48 26 16C26 21.52 21.52 26 16 26C10.48 26 6 21.52 6 16ZM8 16C8 20.41 11.59 24 16 24C20.41 24 24 20.41 24 16C24 11.59 20.41 8 16 8C11.59 8 8 11.59 8 16ZM18.4934 14.5141C18.6887 14.6669 18.8351 14.8736 18.9145 15.1085C18.991 15.3644 19.0165 15.6328 18.9896 15.8985C18.9804 16.1904 18.9113 16.4772 18.7866 16.7412C18.6668 17.0305 18.4815 17.288 18.2453 17.4935C17.9869 17.7173 17.6809 17.8794 17.3506 17.9675C16.9321 18.082 16.4948 18.1101 16.065 18.0503C15.8495 18.0289 15.6389 17.973 15.4411 17.8847C15.239 17.8037 15.0492 17.6948 14.8772 17.5612C14.7181 17.4383 14.5742 17.2969 14.4486 17.1399C14.3394 17.0033 14.2624 16.8439 14.2231 16.6734L15.2004 16.3424C15.3584 16.6355 15.6061 16.8702 15.9072 17.012C16.1201 17.1044 16.3558 17.1306 16.5838 17.0872C16.7602 17.051 16.9162 16.9488 17.0199 16.8014C17.0674 16.7386 17.0932 16.6619 17.0932 16.5832C17.0932 16.5044 17.0674 16.4278 17.0199 16.365C16.9011 16.2538 16.7519 16.1804 16.5913 16.1543L15.7643 15.9361C15.6905 15.9185 15.6154 15.901 15.5391 15.8831C15.2891 15.8245 15.0259 15.7628 14.7494 15.6878C14.3885 15.6 14.0343 15.4868 13.6893 15.3493C13.3683 15.2235 13.0651 15.0566 12.7871 14.8527C12.5326 14.6762 12.33 14.4346 12.2007 14.153C12.0188 13.7396 11.9589 13.2828 12.0278 12.8364C12.1008 12.3539 12.3006 11.8995 12.6067 11.5197C12.9587 11.0822 13.4028 10.7277 13.9073 10.4815C14.5303 10.1846 15.2098 10.0255 15.8997 10.015C16.5312 9.96334 17.1665 10.0454 17.7642 10.2558C18.1506 10.4032 18.511 10.6114 18.8317 10.8727L18.1851 11.8132C17.9475 11.6286 17.6771 11.4908 17.3883 11.4069C16.9405 11.271 16.4718 11.2175 16.0049 11.2489C15.6257 11.2668 15.2521 11.3482 14.8997 11.4896C14.6217 11.5992 14.3667 11.76 14.1479 11.9636C13.9737 12.1092 13.8632 12.3171 13.8397 12.543C13.8325 12.6471 13.8538 12.7513 13.9015 12.8441C13.9493 12.9369 14.0215 13.0149 14.1103 13.0696C14.3706 13.2453 14.6654 13.3633 14.9749 13.4157L16.1778 13.679C16.6064 13.7693 17.0273 13.8746 17.4484 13.995C17.83 14.0907 18.1865 14.2677 18.4934 14.5141ZM15.794 19.7105C15.9977 19.5694 16.2384 19.4917 16.486 19.4873C16.6519 19.4853 16.8166 19.516 16.9706 19.5777C17.1246 19.6394 17.2649 19.7309 17.3836 19.8468C17.5023 19.9628 17.597 20.101 17.6623 20.2536C17.7276 20.4062 17.7622 20.5702 17.7642 20.7362C17.7656 20.9841 17.6938 21.2268 17.5577 21.4339C17.4216 21.641 17.2274 21.8032 16.9994 21.9C16.7714 21.9969 16.5199 22.0242 16.2765 21.9783C16.0331 21.9325 15.8087 21.8157 15.6315 21.6425C15.4543 21.4694 15.3322 21.2476 15.2806 21.0052C15.2291 20.7628 15.2502 20.5105 15.3416 20.2801C15.4329 20.0497 15.5904 19.8516 15.794 19.7105Z" fill="white"/>
</svg>
