<svg width="67" height="67" viewBox="0 0 67 67" fill="none" xmlns="http://www.w3.org/2000/svg">
<path d="M43 12.9375L45.9375 19.375L48.875 12.9375L55.3125 10L48.875 7.0625L45.9375 0.625L43 7.0625L36.5625 10L43 12.9375Z" fill="#A1ADB2"/>
<path d="M7.06249 12.9375L9.99999 19.375L12.9375 12.9375L19.375 10L12.9375 7.0625L9.99999 0.625L7.06249 7.0625L0.624992 10L7.06249 12.9375Z" fill="#A1ADB2"/>
<path d="M9.99999 36.5625L12.9375 43L19.375 45.9375L12.9375 48.875L9.99999 55.3125L7.06249 48.875L0.624992 45.9375L7.06249 43L9.99999 36.5625Z" fill="#A1ADB2"/>
<path fill-rule="evenodd" clip-rule="evenodd" d="M26 17.1562L17.1563 26C15.9375 27.2188 15.9375 29.2187 17.1563 30.4375L52.0625 65.3438C52.6875 65.9375 53.4688 66.25 54.2812 66.25C55.0938 66.25 55.875 65.9375 56.5 65.3125L65.3438 56.4688C66.5625 55.25 66.5625 53.2812 65.3438 52.0625L30.4375 17.1562C29.8125 16.5625 29.0312 16.25 28.2188 16.25C27.4062 16.25 26.625 16.5625 26 17.1562ZM23.8125 28.2188L28.2188 23.8125L31.875 27.4688L27.4688 31.875L23.8125 28.2188ZM58.6875 54.3125L54.2812 58.7188L31.875 36.2812L36.2812 31.875L58.6875 54.3125Z" fill="#A1ADB2"/>
</svg>
