<svg width="48" height="48" viewBox="0 0 48 48" fill="none" xmlns="http://www.w3.org/2000/svg">
<path d="M43.6585 23.7591C45.6999 22.7702 47.1733 21.2048 47.7629 18.9355C47.8435 18.6243 47.9166 18.3103 47.9934 17.9981V16.0287C47.9606 15.8938 47.9185 15.7607 47.8997 15.6238C47.6652 14.2205 47.2493 12.8537 46.6625 11.5576C44.7748 12.1528 43.0071 12.8961 41.4972 14.1662C40.7763 14.769 40.1875 15.5141 39.7679 16.3549C38.899 18.0994 38.8175 19.9169 39.2533 21.7803C39.4951 22.8114 39.8157 23.8294 39.6423 24.9064C39.4323 26.2122 39.2177 27.5179 38.9777 28.818C38.9234 29.1142 38.8315 29.4657 38.6309 29.6616C37.2503 31.0133 36.5474 32.7015 36.0919 34.5293C36.0236 34.7981 35.9004 35.0499 35.7301 35.2689C34.4235 36.9317 32.8282 38.2778 31.1224 39.5085C31.0092 39.5893 30.8821 39.6487 30.7475 39.6838C29.1813 40.084 27.8419 40.908 26.6834 41.9972C25.9627 42.674 25.1285 43.1361 24.2709 43.5794C24.1472 43.6432 23.9428 43.6985 23.8435 43.6413C23.1461 43.2373 22.4057 42.8755 21.7955 42.3618C20.4008 41.1864 18.9837 40.0794 17.1672 39.6341C17.0639 39.5988 16.9684 39.5437 16.886 39.472C15.1821 38.2215 13.5953 36.838 12.2774 35.1733C12.1022 34.9392 11.9749 34.6729 11.9025 34.3896C11.4742 32.8121 10.9427 31.2748 9.79552 30.0647C9.35194 29.6096 9.05234 29.0338 8.93416 28.4093C8.49551 26.1915 8.11591 24.0122 8.7467 21.7213C9.4103 19.3207 8.98008 17.0111 7.34078 15.0267C6.3407 13.8035 5.02757 13.0011 3.59447 12.3843C2.86058 12.0684 2.09482 11.8153 1.30844 11.5182C1.04319 12.2784 0.772319 12.9439 0.581114 13.6301C0.353355 14.4512 0.192142 15.291 0.00468633 16.1225V18.0909C0.177146 18.6665 0.308365 19.2579 0.529563 19.8147C1.34312 21.8638 2.92525 23.1629 4.8598 24.0637C5.36968 24.3009 5.55432 24.5577 5.56557 25.1267C5.58338 26.02 5.74553 26.9077 5.84676 27.8497C3.86253 27.4748 1.92424 27.6622 0 28.1206V28.5893C0.156526 29.281 0.270874 29.9859 0.481762 30.6608C0.749824 31.5194 1.02257 32.3903 1.41904 33.1917C2.64313 35.6363 4.69952 36.9158 7.38202 37.2045C8.15059 37.287 8.93603 37.2373 9.71304 37.2045C9.85612 37.1905 10.0005 37.2111 10.1339 37.2646C10.2674 37.3181 10.386 37.403 10.4797 37.512C11.1686 38.2337 11.895 38.918 12.6064 39.6191C12.7151 39.726 12.8267 39.83 12.9748 39.9716C10.9802 40.7739 9.44685 42.1144 8.02781 43.6835C9.90237 45.6229 11.8088 47.4395 14.5888 47.9231C14.6363 47.9382 14.6808 47.9617 14.72 47.9925H16.4071C16.8232 47.88 17.246 47.7853 17.6556 47.6522C18.8899 47.2511 19.9622 46.5612 20.9417 45.726C21.1685 45.5338 21.3372 45.5038 21.5978 45.6519C22.2998 46.0559 23.0093 46.4477 23.7319 46.8133C23.8169 46.8497 23.9085 46.8685 24.0009 46.8685C24.0934 46.8685 24.1849 46.8497 24.2699 46.8133C25.1022 46.3887 25.9186 45.9322 26.7331 45.4907C27.3142 45.9013 27.8785 46.3146 28.4586 46.7093C29.4409 47.3654 30.5394 47.7497 31.6876 48H33.2809C33.8021 47.8547 34.3345 47.7413 34.8425 47.5594C36.2184 47.0683 37.3675 46.2125 38.4285 45.232C38.9534 44.7464 39.4595 44.2431 39.9956 43.7322C38.5597 42.1575 37.0591 40.8199 35.0224 39.9322C35.178 39.8428 35.3262 39.7413 35.4658 39.6285C36.1143 38.9977 36.8014 38.3977 37.3834 37.7088C37.7471 37.2776 38.1033 37.1829 38.6272 37.2401C40.1853 37.4237 41.7638 37.1726 43.188 36.5146C45.2894 35.536 46.551 33.8272 47.2267 31.6685C47.5229 30.7227 47.6823 29.7329 47.9063 28.7627C47.9322 28.6749 47.9635 28.5888 48 28.5049V28.13C46.0926 27.6763 44.1684 27.5001 42.1739 27.8085C42.2517 27.0726 42.4007 26.379 42.3782 25.691C42.3388 24.688 42.7606 24.194 43.6585 23.7591ZM19.7813 0H16.9695V2.77925H19.7813V0ZM25.405 0H22.5931V2.77925H25.405V0ZM31.0287 0H28.2168V2.77925H31.0287V0ZM11.2624 23.9484C11.2534 24.7596 11.3243 25.5696 11.4742 26.3668C12.8126 32.8842 16.6883 37.1567 22.9877 39.2367C23.4161 39.3782 23.9306 39.5095 24.3459 39.4054C31.7054 37.5635 36.7376 31.093 36.7461 23.507C36.7505 18.6646 36.7505 13.8216 36.7461 8.97797V8.43618C36.2324 8.43618 35.7676 8.44368 35.3027 8.43618C34.3879 8.41931 33.8555 7.88408 33.8414 6.9711C33.8358 6.53804 33.8414 6.10405 33.8414 5.65412H14.0639C14.0639 6.11529 14.0714 6.55023 14.0639 6.98422C14.0461 7.87846 13.5306 8.40244 12.6317 8.43337C12.1959 8.44837 11.7601 8.43337 11.2549 8.43337V8.90205C11.2521 13.9188 11.2427 18.9345 11.2624 23.9484ZM16.9695 11.5557C16.9695 11.4788 16.976 11.401 16.9816 11.2689H31.0287V11.7713C31.0287 15.6594 31.0287 19.5479 31.0287 23.4366C31.024 28.0062 28.5036 31.7866 24.2906 33.5263C24.094 33.5938 23.8797 33.5881 23.687 33.5104C19.9781 31.9347 17.7821 29.1461 17.0922 25.182C17.016 24.7355 16.9781 24.2833 16.9788 23.8303C16.9676 19.7391 16.9645 15.6476 16.9695 11.5557ZM19.7813 23.7572C19.7916 25.9666 20.6848 27.7972 22.2567 29.3176C22.354 29.398 22.4567 29.4716 22.5641 29.5379V14.0819H19.7813V14.4868C19.7813 17.5763 19.7701 20.6668 19.7813 23.7572ZM28.2065 23.7572C28.2281 20.664 28.2121 17.5773 28.2112 14.4877C28.2112 14.3537 28.1943 14.2197 28.1859 14.1025H25.4181V29.5688C25.5465 29.4751 25.6131 29.4357 25.6665 29.3813C27.2795 27.8516 28.1943 25.9947 28.2103 23.7535L28.2065 23.7572Z" fill="white"/>
</svg>
