<svg width="57" height="97" viewBox="0 0 57 97" fill="none" xmlns="http://www.w3.org/2000/svg">
<path d="M56.3035 41.2941C55.657 39.3947 54.4649 37.7244 52.8749 36.4894C50.376 34.4976 47.4731 33.0661 44.3653 32.293C40.937 31.32 37.509 30.4687 34.0195 29.7389L24.2245 27.6104C21.7039 27.187 19.3034 26.233 17.1841 24.8128C16.4605 24.3706 15.8725 23.7403 15.484 22.9898C15.0955 22.2394 14.9214 21.3974 14.9803 20.5556C15.1718 18.7296 16.0716 17.0497 17.4898 15.8726C19.2715 14.2266 21.348 12.927 23.6117 12.0411C26.481 10.8976 29.5234 10.2401 32.6116 10.0954C36.4132 9.84139 40.2295 10.2739 43.8758 11.3723C46.2281 12.0503 48.4296 13.1649 50.3647 14.6566L55.6295 7.05454C53.0178 4.94254 50.0835 3.25894 46.9368 2.06757C42.0697 0.366807 36.8967 -0.296343 31.7544 0.121402C26.1369 0.206401 20.6035 1.4924 15.5311 3.89198C11.4228 5.88236 7.80678 8.74792 4.94018 12.2846C2.44741 15.3547 0.820479 19.0276 0.226151 22.9275C-0.335049 26.5359 0.153363 30.2285 1.63408 33.5703C2.68727 35.8464 4.33659 37.7997 6.40939 39.2262C8.67313 40.8741 11.1422 42.2232 13.7555 43.2399C16.5647 44.3518 19.4494 45.2663 22.3876 45.9767C25.3262 46.7673 28.0809 47.3756 30.6521 47.9837L37.3861 49.7473C38.6937 49.9582 39.9088 50.5512 40.8761 51.4503C41.2634 51.9578 41.4732 52.577 41.4732 53.2138C41.4732 53.8507 41.2634 54.4703 40.8761 54.9777C40.0322 56.1694 38.7617 56.9957 37.3249 57.2884C35.4684 57.6388 33.5494 57.4271 31.8157 56.6804C29.3643 55.5337 27.3471 53.6367 26.0607 51.2677L18.1026 53.9436C18.4223 55.3214 19.0496 56.6101 19.9387 57.7142C20.9614 58.9833 22.1332 60.1266 23.4286 61.1199C24.8291 62.1997 26.3745 63.0798 28.0201 63.7349C29.6308 64.4483 31.3461 64.9002 33.1011 65.0731C36.6002 65.5568 40.1615 65.3293 43.5694 64.4042C46.2586 63.6919 48.7501 62.3817 50.8549 60.5727C52.7781 58.9116 54.2867 56.8298 55.2625 54.4911C56.2778 52.3573 56.8406 50.0388 56.9156 47.6797C57.1345 45.5319 56.9266 43.3623 56.3035 41.2941ZM36.529 76.6888C34.5125 76.7248 32.5525 77.3528 30.8943 78.4932C29.2361 79.6335 27.9539 81.2352 27.21 83.0975C26.4662 84.9597 26.2938 86.999 26.7138 88.9586C27.1338 90.9181 28.1278 92.7107 29.5708 94.1104C31.0137 95.5101 32.8409 96.4545 34.8229 96.8249C36.8049 97.1953 38.8531 96.9751 40.7094 96.192C42.5658 95.4089 44.1472 94.098 45.2553 92.424C46.3634 90.7501 46.9485 88.7879 46.9368 86.7845C46.9208 85.4427 46.6389 84.1172 46.1073 82.8836C45.5756 81.6501 44.8041 80.5327 43.8377 79.5953C42.8712 78.6578 41.7288 77.9187 40.4748 77.4201C39.2208 76.9214 37.8796 76.6727 36.529 76.6888Z" fill="#A1ADB2"/>
</svg>
