<svg width="83" height="100" viewBox="0 0 83 100" fill="none" xmlns="http://www.w3.org/2000/svg">
<path d="M59.378 54.7538C59.0289 52.3858 58.7998 49.9977 58.5307 47.6164C58.123 44.0265 57.7242 40.436 57.3343 36.8447C56.9874 33.6924 56.5738 30.5469 56.3247 27.388C56.1023 24.5424 53.8296 22.2365 50.9654 22.2299C45.0353 22.2136 39.1051 22.2136 33.175 22.2299C31.9857 22.2335 30.8331 22.6419 29.9073 23.3878C28.9815 24.1337 28.3379 25.1725 28.0825 26.3328C27.7845 27.8079 27.7223 29.3273 27.5488 30.8268C27.0551 35.1097 26.5503 39.3904 26.0633 43.6756C25.6608 47.2298 25.3695 50.7975 24.8625 54.3384C24.3443 57.946 26.8772 61.0849 30.502 61.0916H32.0164C32.1321 62.1867 32.221 63.1397 32.3366 64.0905C32.8377 68.2594 33.3418 72.4297 33.8488 76.6016C34.2625 80.0381 34.665 83.488 35.0786 86.9135C35.4789 90.2456 35.9214 93.5778 36.2794 96.9099C36.4596 98.5938 37.6337 99.9066 39.326 99.9599C41.1407 100.018 42.9575 100.009 44.7721 99.9599C45.5339 99.9416 46.264 99.6512 46.8298 99.1414C47.3957 98.6316 47.7599 97.936 47.8565 97.1809C48.153 94.3953 48.4658 91.6118 48.795 88.8306C49.3531 84.2211 49.9558 79.6183 50.5095 75.0088C51.0632 70.3994 51.5791 65.7966 52.124 61.096C52.8022 61.096 53.4249 61.096 54.0453 61.096C57.1742 61.0582 59.8361 57.8372 59.378 54.7538ZM24.9981 60.574C24.4436 60.0866 23.968 59.5163 23.5882 58.8835C22.5519 57.2529 22.4052 55.4936 22.6987 53.5765C23.1435 50.6264 23.3458 47.6408 23.6772 44.673C24.0908 40.9743 24.4488 37.2667 24.9848 33.5858C25.4584 30.3292 25.2561 26.9615 26.5904 23.6849C26.0033 23.5649 25.4429 23.3539 24.8847 23.3495C19.2163 23.325 13.5434 23.3117 7.87935 23.3495C5.25972 23.365 3.08485 25.6242 2.9314 28.2366C2.83801 29.8538 2.60895 31.4621 2.42438 33.0727C2.01075 36.701 1.59194 40.3293 1.16794 43.9577C0.814352 47.0344 0.543048 50.1199 0.0938419 53.181C-0.417631 56.6798 1.1835 59.3544 4.36353 59.9275C5.17744 60.0719 6.02693 60.0186 6.8653 60.0564C7.06321 61.929 7.22778 63.6884 7.43904 65.4411C8.00166 70.0884 8.59096 74.7334 9.15581 79.3806C9.75178 84.2855 10.3189 89.1949 10.9237 94.0998C10.992 94.7869 11.311 95.4248 11.82 95.8919C12.329 96.359 12.9923 96.6225 13.6835 96.6322C15.4625 96.6856 17.2415 96.69 19.0206 96.6322C19.6919 96.5965 20.3317 96.336 20.8368 95.8927C21.3419 95.4494 21.6828 94.8491 21.8048 94.1887C21.8826 93.7577 21.8337 93.3001 21.8893 92.8558C22.4563 88.2108 23.0434 83.568 23.606 78.923C24.2732 73.3983 24.9247 67.8691 25.5941 62.3444C25.6653 61.6403 25.6186 61.0827 24.9981 60.574ZM82.9925 54.5961C82.9146 53.0411 82.7078 51.515 82.5477 49.9755C82.1593 46.4212 81.7635 42.8669 81.3602 39.3127C80.9466 35.6473 80.4596 31.9819 80.1282 28.3166C79.868 25.442 77.7332 23.3406 74.8134 23.3361C69.4051 23.3361 63.9939 23.3361 58.5797 23.3361C58.1972 23.3361 57.8147 23.3761 57.4477 23.3983C57.768 24.5424 58.1616 25.5376 58.3106 26.5683C58.6219 28.7209 58.7976 30.8934 59.0378 33.0571C59.4558 36.7936 59.8872 40.53 60.3053 44.2665C60.6322 47.1987 60.8768 50.1421 61.2816 53.0633C61.7619 56.5265 60.9235 59.3988 58.0148 61.5403C57.8556 61.6831 57.7294 61.8588 57.645 62.0552C57.5605 62.2516 57.5198 62.464 57.5256 62.6777C57.8147 65.4611 58.1927 68.2312 58.5174 71.0169C59.0066 75.1132 59.4907 79.2103 59.9695 83.3081C60.3809 86.7868 60.8146 90.2634 61.1837 93.7488C61.3527 95.3349 62.5069 96.5789 64.1347 96.6367C65.8381 96.6878 67.5438 96.6789 69.2494 96.6367C70.6593 96.6011 71.918 95.6304 72.0825 94.4352C72.4161 92.0628 72.7007 89.6836 72.9721 87.3022C73.3746 83.8612 73.7437 80.4158 74.1484 76.977C74.5598 73.5005 75.0002 70.0306 75.4249 66.5563C75.6873 64.4059 75.9453 62.2534 76.2166 59.992C76.7903 59.992 77.2996 59.992 77.8088 59.992C80.8732 59.9609 83.1481 57.6328 82.9925 54.5961ZM42.0746 18.4867C43.2898 18.4867 44.493 18.2477 45.6157 17.7831C46.7383 17.3186 47.7584 16.6377 48.6176 15.7794C49.4769 14.9211 50.1585 13.9021 50.6235 12.7807C51.0885 11.6592 51.3279 10.4572 51.3279 9.24337C51.3279 8.02952 51.0885 6.82754 50.6235 5.70609C50.1585 4.58463 49.4769 3.56565 48.6176 2.70732C47.7584 1.84899 46.7383 1.16813 45.6157 0.703607C44.493 0.239084 43.2898 -3.61758e-08 42.0746 0C36.9355 0 32.7347 4.15852 32.7347 9.23671C32.7347 14.3149 36.9443 18.4845 42.0746 18.4867ZM66.6543 20.2328C67.8016 20.2543 68.9418 20.0472 70.0081 19.6235C71.0744 19.1998 72.0455 18.5681 72.8645 17.7652C73.6836 16.9623 74.3343 16.0043 74.7785 14.9474C75.2227 13.8904 75.4515 12.7555 75.4516 11.6092C75.466 10.4452 75.2489 9.29002 74.8129 8.21053C74.3769 7.13104 73.7307 6.14878 72.9117 5.32074C72.0927 4.49269 71.1172 3.83534 70.0419 3.38682C68.9666 2.9383 67.8129 2.70754 66.6476 2.70792C61.9776 2.70792 57.9592 6.7065 57.8992 11.3959C57.8921 12.5505 58.1131 13.6952 58.5493 14.7644C58.9855 15.8336 59.6285 16.8064 60.4415 17.6272C61.2544 18.448 62.2214 19.1005 63.2871 19.5476C64.3527 19.9947 65.4962 20.2276 66.652 20.2328H66.6543ZM16.0229 20.2594C17.2065 20.2952 18.3852 20.0927 19.4888 19.664C20.5924 19.2353 21.5984 18.5891 22.4468 17.764C23.2953 16.9388 23.9688 15.9516 24.4274 14.861C24.8859 13.7704 25.1201 12.5988 25.116 11.4159C25.156 6.75093 21.0842 2.67905 16.4098 2.72125C10.986 2.77012 7.45238 7.14856 7.59915 11.4692C7.5775 13.7423 8.44604 15.9338 10.0194 17.5761C11.5928 19.2183 13.7464 20.1813 16.0207 20.2594H16.0229Z" fill="#697B83"/>
</svg>
