<svg width="100" height="100" viewBox="0 0 100 100" fill="none" xmlns="http://www.w3.org/2000/svg">
<path d="M90.9552 49.4981C95.2082 47.4379 98.2777 44.1767 99.506 39.4489C99.6739 38.8006 99.8262 38.1464 99.9863 37.4961V33.3932C99.918 33.112 99.8301 32.8347 99.7911 32.5496C99.3025 29.6261 98.4361 26.7784 97.2135 24.0783C93.2809 25.3183 89.5981 26.8669 86.4524 29.513C84.9505 30.7688 83.724 32.3211 82.8497 34.0728C81.0396 37.707 80.8697 41.4935 81.7777 45.3757C82.2815 47.5238 82.9493 49.6446 82.5881 51.8884C82.1507 54.6087 81.7035 57.3289 81.2036 60.0375C81.0904 60.6546 80.899 61.3869 80.4811 61.795C77.6049 64.611 76.1404 68.128 75.1914 71.936C75.0491 72.4961 74.7925 73.0207 74.4376 73.4768C71.7156 76.9411 68.3922 79.7453 64.8383 82.3094C64.6024 82.4778 64.3377 82.6015 64.0573 82.6746C60.7943 83.5084 58.004 85.225 55.5905 87.4941C54.0889 88.9041 52.351 89.8668 50.5643 90.7905C50.3066 90.9233 49.8809 91.0385 49.6739 90.9194C48.2211 90.0777 46.6785 89.3239 45.4073 88.2538C42.5018 85.8049 39.5493 83.4987 35.7651 82.5711C35.5498 82.4975 35.3508 82.3827 35.1793 82.2332C31.6293 79.6282 28.3234 76.7458 25.578 73.2776C25.213 72.79 24.9476 72.2352 24.7969 71.6451C23.9046 68.3585 22.7974 65.1558 20.4073 62.6347C19.4832 61.6866 18.859 60.487 18.6128 59.1861C17.699 54.5657 16.9081 50.0254 18.2223 45.2527C19.6048 40.2515 18.7085 35.4398 15.2933 31.3057C13.2098 28.7572 10.4741 27.0856 7.48848 25.8007C5.95954 25.1426 4.36421 24.6153 2.72592 23.9963C2.17332 25.58 1.609 26.9665 1.21065 28.396C0.736156 30.1066 0.400297 31.8563 0.00976319 33.5885V37.6894C0.369054 38.8885 0.642427 40.1207 1.10326 41.2807C2.79817 45.5495 6.09428 48.2561 10.1246 50.1328C11.1868 50.6269 11.5715 51.1619 11.5949 52.3473C11.632 54.2083 11.9699 56.0576 12.1807 58.0202C8.04694 57.2391 4.00883 57.6297 0 58.5846V59.561C0.326095 61.0022 0.564321 62.4707 1.00367 63.8767C1.56213 65.6655 2.13036 67.4797 2.95634 69.1494C5.50652 74.2423 9.79067 76.9079 15.3792 77.5094C16.9804 77.6812 18.6167 77.5777 20.2355 77.5094C20.5336 77.4801 20.8343 77.5231 21.1123 77.6346C21.3903 77.7461 21.6374 77.9228 21.8328 78.1499C23.268 79.6536 24.7813 81.0791 26.2634 82.5398C26.4899 82.7625 26.7223 82.9792 27.0308 83.2741C22.8755 84.9457 19.6809 87.7383 16.7246 91.0073C20.6299 95.0477 24.6017 98.8322 30.3933 99.8399C30.4923 99.8713 30.5849 99.9202 30.6666 99.9844H34.1814C35.0484 99.75 35.9291 99.5528 36.7824 99.2755C39.3541 98.4397 41.5879 97.0024 43.6284 95.2625C44.101 94.8621 44.4525 94.7996 44.9953 95.1082C46.4579 95.9499 47.936 96.7661 49.4415 97.5277C49.6186 97.6036 49.8093 97.6427 50.0019 97.6427C50.1946 97.6427 50.3853 97.6036 50.5624 97.5277C52.2963 96.6431 53.9971 95.6921 55.694 94.7723C56.9046 95.6276 58.0801 96.4888 59.2888 97.311C61.3352 98.6779 63.6238 99.4786 66.0158 100H69.3353C70.421 99.6973 71.5301 99.461 72.5885 99.0822C75.455 98.0589 77.8489 96.276 80.0594 94.2333C81.1529 93.2218 82.2073 92.1731 83.3242 91.1088C80.3327 87.8281 77.2065 85.0414 72.9634 83.1921C73.2875 83.0059 73.5963 82.7944 73.887 82.5594C75.2382 81.2451 76.6695 79.9953 77.8821 78.56C78.6398 77.6617 79.3818 77.4645 80.4733 77.5836C83.7193 77.9661 87.0079 77.443 89.975 76.0721C94.3529 74.0333 96.9812 70.4734 98.3891 65.976C99.0061 64.0056 99.338 61.9434 99.8047 59.9223C99.8587 59.7394 99.9239 59.5601 100 59.3853V58.6041C96.0263 57.659 92.0175 57.2918 87.8622 57.9343C88.0243 56.4013 88.3348 54.9563 88.2879 53.5229C88.2059 51.4334 89.0846 50.4042 90.9552 49.4981ZM41.211 0H35.353V5.79011H41.211V0ZM52.927 0H47.069V5.79011H52.927V0ZM64.6431 0H58.785V5.79011H64.6431V0ZM23.4633 49.8926C23.4446 51.5824 23.5924 53.27 23.9046 54.9309C26.693 68.5088 34.7672 77.4098 47.8911 81.7431C48.7835 82.038 49.8555 82.3114 50.7205 82.0946C66.0529 78.2573 76.5368 64.777 76.5543 48.9728C76.5634 38.8845 76.5634 28.795 76.5543 18.7041V17.5754C75.4843 17.5754 74.5157 17.591 73.5472 17.5754C71.6414 17.5402 70.5323 16.4252 70.503 14.5231C70.4913 13.6209 70.503 12.7168 70.503 11.7794H29.2998C29.2998 12.7402 29.3154 13.6463 29.2998 14.5505C29.2627 16.4135 28.1887 17.5051 26.3161 17.5695C25.4081 17.6008 24.5001 17.5695 23.4476 17.5695V18.5459C23.4418 28.9974 23.4222 39.447 23.4633 49.8926ZM35.353 24.0744C35.353 23.9142 35.3667 23.7521 35.3784 23.4768H64.6431V24.5235C64.6431 32.6238 64.6431 40.7248 64.6431 48.8264C64.6333 58.3464 59.3826 66.2221 50.6053 69.8465C50.1958 69.987 49.7494 69.9752 49.3478 69.8133C41.6211 66.5306 37.046 60.721 35.6088 52.4625C35.4501 51.5323 35.371 50.5902 35.3726 49.6465C35.3491 41.1231 35.3426 32.5991 35.353 24.0744ZM41.211 49.4942C41.2325 54.097 43.0934 57.9109 46.368 61.0783C46.5708 61.2458 46.7848 61.3991 47.0085 61.5373V29.3372H41.211V30.1808C41.211 36.6173 41.1876 43.0558 41.211 49.4942ZM58.7636 49.4942C58.8085 43.0499 58.7753 36.6193 58.7733 30.1828C58.7733 29.9035 58.7382 29.6243 58.7206 29.3802H52.9544V61.6017C53.2219 61.4064 53.3605 61.3244 53.4718 61.2111C56.8324 58.0241 58.7382 54.1556 58.7714 49.4864L58.7636 49.4942Z" fill="#697B83"/>
</svg>
