<svg width="36" height="36" viewBox="0 0 36 36" fill="none" xmlns="http://www.w3.org/2000/svg">
<rect width="36" height="36" rx="18" fill="white"/>
<path d="M28 14.98V24C28 25.1 27.1 26 26 26H10C8.9 26 8 25.1 8 24L8.01 12C8.01 10.9 8.9 10 10 10H20.1C20.04 10.32 20 10.66 20 11C20 11.34 20.04 11.68 20.1 12H10L18 17L21.67 14.71C22.14 15.14 22.69 15.47 23.3 15.69L18 19L10 14V24H26V15.9C26.74 15.75 27.42 15.42 28 14.98ZM22 11C22 12.66 23.34 14 25 14C26.66 14 28 12.66 28 11C28 9.34 26.66 8 25 8C23.34 8 22 9.34 22 11Z" fill="#435A64"/>
</svg>
