<svg width="36" height="36" viewBox="0 0 36 36" fill="none" xmlns="http://www.w3.org/2000/svg">
<rect width="36" height="36" rx="18" fill="white" fill-opacity="0.1"/>
<path d="M18 17.2617L24.0117 13.5H11.9883L18 17.2617ZM24.0117 22.5V15.0117L18 18.7383L11.9883 15.0117V22.5H24.0117ZM24.0117 11.9883C24.4102 11.9883 24.75 12.1406 25.0312 12.4453C25.3359 12.75 25.4883 13.1016 25.4883 13.5V22.5C25.4883 22.8984 25.3359 23.25 25.0312 23.5547C24.75 23.8594 24.4102 24.0117 24.0117 24.0117H11.9883C11.5898 24.0117 11.2383 23.8594 10.9336 23.5547C10.6523 23.25 10.5117 22.8984 10.5117 22.5V13.5C10.5117 13.1016 10.6523 12.75 10.9336 12.4453C11.2383 12.1406 11.5898 11.9883 11.9883 11.9883H24.0117Z" fill="white"/>
</svg>
